<!--?xml version="1.0" encoding="utf-8"?-->
<!-- Generator: Adobe Illustrator 18.1.1, SVG Export Plug-In . SVG Version: 6.00 Build 0)  -->

<svg version="1.1" id="_x32_" xmlns="http://www.w3.org/2000/svg" xmlns:xlink="http://www.w3.org/1999/xlink" x="0px" y="0px" viewBox="0 0 512 512" style="width: 256px; height: 256px; opacity: 1;" xml:space="preserve">
<style type="text/css">
	.st0{fill:#4B4B4B;}
</style>
<g>
	<path class="st0" d="M463.302,88.534C400.274,52.516,316.768,49.15,256.001,49.15c-60.768,0-144.282,3.366-207.291,39.384
		c-63.029,36.019-47.289,103.54-46.155,110.287c1.135,6.754,13.524,30.384,34.9,28.144c21.374-2.269,76.74-20.279,87.996-27.033
		c11.254-6.747,13.509-25.883,5.627-39.377c-7.882-13.509-1.127-18.001-1.127-18.001h126.05H382.05c0,0,6.755,4.492-1.126,18.001
		c-7.882,13.494-5.628,32.63,5.627,39.377c11.255,6.754,66.632,24.764,88,27.033c21.374,2.239,33.764-21.39,34.899-28.144
		C510.576,192.075,526.316,124.553,463.302,88.534z" style="fill: rgb(75, 75, 75);"></path>
	<path class="st0" d="M352.733,164.711c-1.695-3.258-5.038-5.29-8.733-5.29h-29.111c-3.61,0-6.554,2.936-6.554,6.578v19.895
		c0,3.626-2.944,6.563-6.578,6.563h-91.511c-3.634,0-6.578-2.936-6.578-6.563V166c0-3.642-2.936-6.578-6.554-6.578h-29.111
		c-3.688,0-7.038,2.032-8.726,5.29L87.65,301.825c-12.512,23.92-19.029,50.501-19.029,77.504v31.993
		c0,18.124,14.704,32.83,32.825,32.83h8.211v18.699h33.427v-18.699h225.841v18.699h33.419v-18.699h8.211
		c18.124,0,32.829-14.705,32.829-32.83v-31.993c0-27.003-6.532-53.583-19.037-77.504L352.733,164.711z M337.553,353.061v36.855
		h-36.847v-36.855H337.553z M337.553,294.779v36.855h-36.847v-36.855H337.553z M300.706,273.343v-36.847h36.847v36.847H300.706z
		 M274.424,353.061v36.855h-36.846v-36.855H274.424z M274.424,294.779v36.855h-36.846v-36.855H274.424z M274.424,236.496v36.847
		h-36.846v-36.847H274.424z M211.296,353.061v36.855h-36.846v-36.855H211.296z M211.296,294.779v36.855h-36.846v-36.855H211.296z
		 M174.449,273.343v-36.847h36.846v36.847H174.449z" style="fill: rgb(75, 75, 75);"></path>
</g>
</svg>
